<?xml version="1.0" encoding="utf-8"?>
<svg version="1.1" xmlns="http://www.w3.org/2000/svg" xmlns:xlink="http://www.w3.org/1999/xlink" x="0px" y="0px"
	 width="19px" height="19px" viewBox="0 0 19 19" enable-background="new 0 0 19 19" xml:space="preserve">
<path fill="#fff" d="M17.632,16.955l-4.761-4.762c1.109-1.188,1.795-2.776,1.795-4.527c0-3.667-2.982-6.649-6.649-6.649
	c-3.667,0-6.649,2.982-6.649,6.648c0,3.667,2.982,6.647,6.649,6.647c1.391,0,2.682-0.432,3.75-1.164l4.834,4.834L17.632,16.955z
	 M2.824,7.666c0-2.863,2.33-5.192,5.192-5.192c2.864,0,5.192,2.329,5.192,5.192c0,2.861-2.328,5.191-5.192,5.191
	C5.154,12.855,2.824,10.527,2.824,7.666z"/>
</svg>
